<?xml version="1.0" encoding="iso-8859-1"?><!--Generator: Adobe Illustrator 19.0.0, SVG Export Plug-In . SVG Version: 6.00 Build 0)--><svg xmlns="http://www.w3.org/2000/svg" viewBox="0 0 343.432 343.432" style="enable-background:new 0 0 343.432 343.432"><path style="fill:#5E96DC" d="M298.035 151.536c.159-2.158.242-4.338.242-6.536 0-48.412-39.245-87.658-87.657-87.658-29.496 0-55.589 14.569-71.477 36.903a69.535 69.535 0 00-15.311-1.716c-33.779 0-61.909 24.133-68.122 56.095C23.938 154.988 0 183.034 0 216.678c0 38.335 31.077 69.412 69.412 69.412H274.02c38.336 0 69.412-31.077 69.412-69.412 0-29.893-18.898-55.368-45.397-65.142z"/><path style="fill:#FFFFFF" d="M197.642 244.478l.007-75.18 25.444.001-47.566-47.567-47.566 47.566h25.447v75.18z"/></svg>